Coordinates
version=1
nRows=13
nColumns=36
inDegrees=yes

Units are S.I. units (second, meters, Newtons, ...)
If the header above contains a line with 'inDegrees', this indicates whether rotational values are in degrees (yes) or radians (no).

endheader
time	pelvis_tilt	pelvis_list	pelvis_rotation	pelvis_tx	pelvis_ty	pelvis_tz	hip_flexion_r	hip_adduction_r	hip_rotation_r	knee_angle_r	knee_angle_r_beta	ankle_angle_r	subtalar_angle_r	mtp_angle_r	hip_flexion_l	hip_adduction_l	hip_rotation_l	knee_angle_l	knee_angle_l_beta	ankle_angle_l	subtalar_angle_l	mtp_angle_l	lumbar_extension	lumbar_bending	lumbar_rotation	arm_flex_r	arm_add_r	arm_rot_r	elbow_flex_r	pro_sup_r	arm_flex_l	arm_add_l	arm_rot_l	elbow_flex_l	pro_sup_l
      1.11000000	      2.24919802	      3.50890263	     92.06690969	     -0.20944525	      0.95659787	     -0.36682617	     11.88041426	      4.71295254	     -9.58665313	     23.28275367	      0.40636071	      5.62401302	     -6.89962215	     -7.50000290	      3.34520522	     -5.29792437	     -4.52236948	     60.83033824	      1.06168969	    -24.42859880	    -18.76038490	     -7.50000290	    -16.13064041	      4.37368230	     -2.33038798	     -1.62616450	     -4.33568074	    -45.71609373	     33.66922289	    101.23504165	     13.31772931	     -6.18758697	    -21.91218776	     46.08458431	     85.77248685
      1.12000000	      2.04444828	      3.19892733	     92.40702343	     -0.20961595	      0.95792964	     -0.37746021	     11.27836785	      4.47353758	     -9.86631937	     22.91921151	      0.40001570	      6.14272294	     -6.36011164	     -7.50000273	      5.63104131	     -5.22101744	     -4.33741774	     62.68150344	      1.09399862	    -21.14630451	    -19.31166272	     -7.50000273	    -15.92199770	      4.16306626	     -2.22687904	     -1.34440171	     -4.25202925	    -45.32673821	     33.96991374	    100.89264182	     13.14015580	     -5.87583436	    -22.02187300	     45.40818058	     85.51824805
      1.13000000	      1.66268118	      3.06196896	     92.57995549	     -0.20975500	      0.95963775	     -0.38802374	     10.48264423	      4.11130229	     -9.80774646	     22.53630072	      0.39333265	      6.63612961	     -6.09933381	     -7.50000263	      7.61155398	     -4.74958251	     -4.08976423	     63.99609562	      1.11694258	    -18.61339872	    -20.04755884	     -7.50000263	    -15.97851934	      3.75818220	     -2.09785163	     -0.93172540	     -4.22837189	    -45.01355073	     34.32090629	    100.48513456	     12.81782518	     -5.79595158	    -22.11032156	     44.89433949	     85.24841319
      1.14000000	      1.46393998	      2.76651002	     92.84289831	     -0.20991151	      0.96083638	     -0.39857280	      9.88034757	      3.94967773	     -9.78217582	     22.17556245	      0.38703658	      7.02434776	     -5.91819031	     -7.50000252	      9.78906488	     -4.58877311	     -4.02349316	     65.05191889	      1.13537017	    -16.28236990	    -20.45011996	     -7.50000252	    -15.78214596	      3.53478964	     -1.99437969	     -0.62482787	     -4.21768705	    -44.47849544	     34.69184980	    100.38214478	     12.54207528	     -5.53884095	    -22.27555714	     44.18296780	     85.11672143
      1.15000000	      1.10051719	      2.66904120	     92.87784253	     -0.20979516	      0.96247347	     -0.40950040	      8.94943718	      3.69859901	     -9.50273186	     21.59274695	      0.37686453	      7.40219721	     -5.86853831	     -7.50000247	     11.50589054	     -4.25455771	     -4.20286707	     65.55669478	      1.14418017	    -14.50578654	    -21.12362142	     -7.50000247	    -15.80236580	      3.10404155	     -1.81011889	     -0.21309595	     -4.21705652	    -44.14737399	     35.01149753	    100.25594663	     12.09376888	     -5.53131764	    -22.43091891	     43.66224602	     85.00582418
      1.16000000	      0.82305697	      2.53761014	     92.86447993	     -0.20954811	      0.96376235	     -0.42017836	      8.09789544	      3.53905184	     -9.20634612	     21.06897851	      0.36772304	      7.71067433	     -5.79232133	     -7.50000242	     13.24743330	     -4.02306877	     -4.49166515	     65.84588204	      1.14922744	    -12.56444396	    -22.04504572	     -7.50000242	    -15.82043774	      2.73744514	     -1.58100698	      0.20991812	     -4.22469105	    -43.74545848	     35.41948600	    100.23766846	     11.63486987	     -5.43949196	    -22.61031897	     43.09141656	     84.94097587
      1.17000000	      0.57988615	      2.37130822	     92.68155047	     -0.20907119	      0.96495573	     -0.43086956	      7.27373266	      3.40429081	     -8.89826830	     20.51319788	      0.35802284	      7.95824679	     -5.60027128	     -7.50000238	     14.88800929	     -3.85916240	     -4.91513995	     65.77571951	      1.14800287	    -10.60618696	    -22.79603288	     -7.50000238	    -15.79667264	      2.38887172	     -1.25238955	      0.60401974	     -4.23113707	    -43.26347911	     35.93144318	    100.22999932	     11.14607509	     -5.36992193	    -22.88582985	     42.54103993	     84.86552258
      1.18000000	      0.38268183	      2.37895105	     92.36410403	     -0.20833831	      0.96629944	     -0.44178634	      6.23083264	      3.37475770	     -8.34660746	     19.88135376	      0.34699508	      8.18413263	     -5.44200723	     -7.50000226	     16.18777842	     -3.89199776	     -5.63058192	     65.38602695	      1.14120146	     -8.40649946	    -22.93906076	     -7.50000226	    -15.95222146	      2.05614224	     -0.64103239	      0.46335414	     -4.48853392	    -41.57025099	     37.05097321	    101.18833674	     10.92344561	     -4.90634671	    -24.15592557	     41.69046657	     85.16409826
      1.19000000	      0.12684166	      2.22158186	     92.20792754	     -0.20783352	      0.96728153	     -0.45245407	      5.41086464	      3.18257976	     -8.27815599	     19.35570424	      0.33782077	      8.27563282	     -5.26829369	     -7.50000223	     17.65034735	     -3.78198603	     -6.19755949	     64.69708889	      1.12917722	     -6.80807202	    -23.74492919	     -7.50000223	    -15.95903252	      1.70552753	     -0.45371491	      0.97876083	     -4.47999764	    -41.22361137	     37.53070755	    101.17060821	     10.29248944	     -4.95217288	    -24.35382737	     41.28151194	     85.15261005
      1.20000000	     -0.01437950	      2.10600445	     92.01463907	     -0.20714663	      0.96805549	     -0.46331840	      4.50580200	      3.13137946	     -8.15678364	     18.71970790	      0.32672054	      8.44356424	     -4.90358738	     -7.50000221	     18.93506134	     -3.77660628	     -6.72494935	     63.69432425	      1.11167567	     -5.50435830	    -24.53080136	     -7.50000221	    -15.94089005	      1.46445115	     -0.15702700	      1.39532374	     -4.52294650	    -40.80067122	     38.06034935	    101.28839702	      9.63657435	     -4.97676244	    -24.64192622	     40.80214410	     85.18872022
      1.21000000	     -0.29987225	      2.50310792	     91.46894777	     -0.20630641	      0.96949473	     -0.47432819	      3.11180017	      2.85532028	     -8.10323284	     18.24796764	      0.31848712	      8.89485905	     -3.66653489	     -7.50000212	     19.33747295	     -3.75694385	     -7.76195938	     62.11584371	      1.08412599	     -4.34044923	    -24.89323996	     -7.50000212	    -16.59092647	      1.03153916	      0.46144489	      1.37295748	     -4.82359367	    -39.13710635	     39.38361949	    101.99963256	      9.13133359	     -4.65681204	    -25.72730303	     40.49367507	     85.53007682
      1.22000000	     -0.29875386	      2.26690040	     91.26208903	     -0.20566988	      0.96973983	     -0.48512564	      2.41089534	      2.90388659	     -8.18601994	     17.73550679	      0.30954299	      8.90869453	     -3.31586968	     -7.50000210	     20.52928257	     -3.83630302	     -8.20729776	     60.43178913	      1.05473369	     -3.45169517	    -25.40631739	     -7.50000210	    -16.41888893	      0.94339868	      0.73703098	      1.84636064	     -4.86051940	    -38.80704997	     39.85979563	    101.97184540	      8.41669594	     -4.69557341	    -25.94227496	     40.05743840	     85.52585134
      1.23000000	     -0.48292397	      2.70348001	     90.83618829	     -0.20497334	      0.97085332	     -0.49621024	      0.99316048	      2.64390402	     -8.57683726	     17.32159404	      0.30231885	      9.26277257	     -1.64155371	     -7.50000201	     20.62690873	     -3.85992433	     -9.16903289	     58.14203338	      1.01476992	     -2.47243124	    -25.52933106	     -7.50000201	    -17.05673570	      0.63564806	      1.18745200	      1.99105224	     -5.21334735	    -37.36834422	     40.88077686	    102.35364019	      7.87537980	     -4.40978458	    -27.12727862	     39.72937371	     85.84465859
